<?xml version="1.0" encoding="UTF-8" ?>
<svg version="1.1" width="48" height="48" xmlns="http://www.w3.org/2000/svg" shape-rendering="crispEdges">
<rect x="21" y="6" width="6" height="3" fill="#191716" />
<rect x="18" y="9" width="3" height="6" fill="#191716" />
<rect x="21" y="9" width="6" height="6" fill="#C74900" />
<rect x="27" y="9" width="3" height="6" fill="#191716" />
<rect x="15" y="15" width="3" height="6" fill="#191716" />
<rect x="18" y="15" width="3" height="6" fill="#F1DADA" />
<rect x="21" y="15" width="6" height="6" fill="#F9E9E9" />
<rect x="27" y="15" width="3" height="6" fill="#F1DADA" />
<rect x="30" y="15" width="3" height="6" fill="#191716" />
<rect x="12" y="21" width="3" height="6" fill="#191716" />
<rect x="15" y="21" width="3" height="6" fill="#C74900" />
<rect x="18" y="21" width="12" height="6" fill="#DD5100" />
<rect x="30" y="21" width="3" height="6" fill="#C74900" />
<rect x="33" y="21" width="3" height="6" fill="#191716" />
<rect x="9" y="27" width="3" height="3" fill="#191716" />
<rect x="12" y="27" width="3" height="6" fill="#F1DADA" />
<rect x="15" y="27" width="6" height="6" fill="#F9E9E9" />
<rect x="21" y="27" width="3" height="3" fill="#F1DADA" />
<rect x="24" y="27" width="9" height="3" fill="#F9E9E9" />
<rect x="33" y="27" width="3" height="6" fill="#F1DADA" />
<rect x="36" y="27" width="3" height="3" fill="#191716" />
<rect x="6" y="30" width="3" height="3" fill="#191716" />
<rect x="9" y="30" width="3" height="3" fill="#C74900" />
<rect x="21" y="30" width="3" height="3" fill="#F9E9E9" />
<rect x="24" y="30" width="3" height="3" fill="#F1DADA" />
<rect x="27" y="30" width="6" height="3" fill="#F9E9E9" />
<rect x="36" y="30" width="3" height="3" fill="#C74900" />
<rect x="39" y="30" width="3" height="3" fill="#191716" />
<rect x="3" y="33" width="3" height="6" fill="#191716" />
<rect x="6" y="33" width="3" height="6" fill="#C74900" />
<rect x="9" y="33" width="6" height="6" fill="#DD5100" />
<rect x="15" y="33" width="6" height="3" fill="#C74900" />
<rect x="21" y="33" width="3" height="6" fill="#DD5100" />
<rect x="24" y="33" width="9" height="3" fill="#C74900" />
<rect x="33" y="33" width="6" height="6" fill="#DD5100" />
<rect x="39" y="33" width="3" height="6" fill="#C74900" />
<rect x="42" y="33" width="3" height="6" fill="#191716" />
<rect x="15" y="36" width="6" height="3" fill="#DD5100" />
<rect x="24" y="36" width="9" height="3" fill="#DD5100" />
<rect x="6" y="39" width="3" height="3" fill="#191716" />
<rect x="9" y="39" width="30" height="3" fill="#C74900" />
<rect x="39" y="39" width="3" height="3" fill="#191716" />
<rect x="9" y="42" width="30" height="3" fill="#191716" />
</svg>